<?xml version="1.0" encoding="UTF-8" standalone="no"?>
<svg
   xmlns:dc="http://purl.org/dc/elements/1.1/"
   xmlns:cc="http://creativecommons.org/ns#"
   xmlns:rdf="http://www.w3.org/1999/02/22-rdf-syntax-ns#"
   xmlns:svg="http://www.w3.org/2000/svg"
   xmlns="http://www.w3.org/2000/svg"
   xmlns:sodipodi="http://sodipodi.sourceforge.net/DTD/sodipodi-0.dtd"
   xmlns:inkscape="http://www.inkscape.org/namespaces/inkscape"
   version="1.1"
   id="svg2"
   xml:space="preserve"
   width="443.89996"
   height="383.22955"
   viewBox="0 0 443.89997 383.22955"
   sodipodi:docname="rankine_cycle_Ts_diagram.svg"
   inkscape:version="1.0.2 (e86c870879, 2021-01-15)"><metadata
     id="metadata8"><rdf:RDF><cc:Work
         rdf:about=""><dc:format>image/svg+xml</dc:format><dc:type
           rdf:resource="http://purl.org/dc/dcmitype/StillImage" /><dc:title /></cc:Work></rdf:RDF></metadata><defs
     id="defs6"><marker
       style="overflow:visible"
       id="Arrow1Mend"
       refX="0"
       refY="0"
       orient="auto"
       inkscape:stockid="Arrow1Mend"
       inkscape:isstock="true"><path
         transform="matrix(-0.4,0,0,-0.4,-4,0)"
         style="fill:#000000;fill-opacity:1;fill-rule:evenodd;stroke:#000000;stroke-width:1pt;stroke-opacity:1"
         d="M 0,0 5,-5 -12.5,0 5,5 Z"
         id="path1470" /></marker><marker
       style="overflow:visible"
       id="marker3403"
       refX="0"
       refY="0"
       orient="auto"
       inkscape:stockid="Arrow1Mstart"
       inkscape:isstock="true"><path
         transform="matrix(0.4,0,0,0.4,4,0)"
         style="fill:#000000;fill-opacity:1;fill-rule:evenodd;stroke:#000000;stroke-width:1pt;stroke-opacity:1"
         d="M 0,0 5,-5 -12.5,0 5,5 Z"
         id="path3401" /></marker><marker
       style="overflow:visible"
       id="marker3233"
       refX="0"
       refY="0"
       orient="auto"
       inkscape:stockid="Arrow1Mend"
       inkscape:isstock="true"><path
         transform="matrix(-0.4,0,0,-0.4,-4,0)"
         style="fill:#000000;fill-opacity:1;fill-rule:evenodd;stroke:#000000;stroke-width:1pt;stroke-opacity:1"
         d="M 0,0 5,-5 -12.5,0 5,5 Z"
         id="path3231" /></marker><marker
       style="overflow:visible"
       id="marker3309"
       refX="0"
       refY="0"
       orient="auto"
       inkscape:stockid="Arrow1Mend"
       inkscape:isstock="true"><path
         transform="matrix(-0.4,0,0,-0.4,-4,0)"
         style="fill:#000000;fill-opacity:1;fill-rule:evenodd;stroke:#000000;stroke-width:1pt;stroke-opacity:1"
         d="M 0,0 5,-5 -12.5,0 5,5 Z"
         id="path3307" /></marker></defs><sodipodi:namedview
     pagecolor="#ffffff"
     bordercolor="#666666"
     borderopacity="1"
     objecttolerance="10"
     gridtolerance="10"
     guidetolerance="10"
     inkscape:pageopacity="0"
     inkscape:pageshadow="2"
     inkscape:window-width="1920"
     inkscape:window-height="1001"
     id="namedview4"
     showgrid="false"
     inkscape:zoom="1.0550847"
     inkscape:cx="407.76087"
     inkscape:cy="121.3432"
     inkscape:window-x="-9"
     inkscape:window-y="-9"
     inkscape:window-maximized="1"
     inkscape:current-layer="g10"
     fit-margin-top="10"
     fit-margin-left="10"
     fit-margin-right="10"
     fit-margin-bottom="10"
     inkscape:document-rotation="0" /><g
     id="g10"
     inkscape:groupmode="layer"
     inkscape:label="rankine_cycle_Ts_diagram"
     transform="matrix(1.3333333,0,0,-1.3333333,-27.640034,386.63332)"><path
       d="m 53.1895,54.343 9.5343,5.7347 11.1207,6.8532 10.6336,6.698 10.1621,6.5293 9.7048,6.3484 9.258,6.1571 8.824,5.957 8.402,5.7493 7.991,5.537 7.591,5.32 7.205,5.102 6.83,4.882 6.47,4.663 6.12,4.445 5.785,4.23 5.463,4.019 5.155,3.812 4.86,3.611 4.578,3.414 4.311,3.225 4.055,3.042 3.813,2.866 3.583,2.697 3.366,2.536 3.16,2.381 2.966,2.233 2.783,2.095 2.61,1.961 2.447,1.836 2.295,1.716 2.152,1.605 2.016,1.498 1.89,1.399 1.772,1.304 1.661,1.217 1.556,1.134 1.46,1.056 1.368,0.983 1.284,0.916 1.205,0.852 1.129,0.792 1.062,0.737 0.996,0.685 0.937,0.636 0.879,0.591 0.828,0.55 0.778,0.51 0.733,0.473 0.691,0.44 0.651,0.408 0.615,0.378 0.58,0.352 0.547,0.326 0.519,0.303 0.491,0.28 0.464,0.26 0.441,0.241 0.419,0.224 0.398,0.207 0.378,0.193 0.361,0.178 0.344,0.165 0.329,0.153 0.314,0.141 0.301,0.133 0.289,0.121 0.278,0.113 0.267,0.105 0.257,0.096 0.249,0.09 0.241,0.083 0.234,0.078 0.227,0.071 0.221,0.066 0.216,0.061 0.211,0.057 0.208,0.053 0.204,0.049 0.202,0.045 0.201,0.042 0.199,0.038 0.199,0.036 0.198,0.033 0.199,0.031 0.203,0.029 0.206,0.026 0.214,0.025 0.223,0.023 0.24,0.02 0.265,0.019 0.31,0.019 0.403,0.017 1.073,0.014 v 0 l 0.443,-0.014 0.198,-0.017 0.164,-0.019 0.148,-0.019 0.14,-0.02 0.137,-0.023 0.136,-0.025 0.136,-0.026 0.14,-0.029 0.144,-0.031 0.15,-0.033 0.157,-0.036 0.166,-0.038 0.164,-0.042 0.161,-0.045 0.158,-0.049 0.155,-0.053 0.153,-0.057 0.15,-0.061 0.147,-0.066 0.145,-0.071 0.142,-0.078 0.139,-0.083 0.137,-0.09 0.133,-0.096 0.129,-0.105 0.126,-0.113 0.121,-0.121 0.117,-0.133 0.112,-0.141 0.106,-0.153 0.099,-0.165 0.093,-0.178 0.086,-0.193 0.077,-0.207 0.067,-0.224 0.057,-0.241 0.046,-0.26 0.034,-0.28 0.021,-0.303 0.005,-0.326 -0.01,-0.352 -0.028,-0.378 -0.048,-0.408 -0.067,-0.44 -0.092,-0.473 -0.115,-0.51 -0.143,-0.55 -0.173,-0.591 -0.204,-0.636 -0.239,-0.685 -0.277,-0.737 -0.316,-0.792 -0.362,-0.852 -0.408,-0.916 -0.461,-0.983 -0.514,-1.056 -0.575,-1.134 -0.639,-1.217 -0.707,-1.304 -0.782,-1.399 -0.861,-1.498 -0.945,-1.605 -1.036,-1.716 -1.132,-1.836 -1.234,-1.961 -1.343,-2.095 -1.458,-2.233 -1.579,-2.381 -1.707,-2.536 -1.842,-2.697 -1.98,-2.866 -2.127,-3.042 -2.277,-3.225 -2.433,-3.414 -2.593,-3.611 -2.755,-3.812 -2.92,-4.019 -3.083,-4.23 -3.247,-4.445 -3.406,-4.663 -3.559,-4.882 -3.703,-5.102 -3.833,-5.32 -3.949,-5.537 -4.041,-5.7493 -4.109,-5.957 -4.142,-6.1571 -4.138,-6.3484 -4.086,-6.5293 -3.979,-6.698 -3.808,-6.8532 -3.562,-6.9922 -3.228,-7.1148 -2.793,-7.2191 -0.179,-0.5821"
       style="fill:none;stroke:#000000;stroke-width:0.4998;stroke-linecap:butt;stroke-linejoin:round;stroke-miterlimit:10;stroke-dasharray:none;stroke-opacity:1"
       id="path282" /><path
       d="m 82.6063,72.4395 1.6464,2.0937"
       style="fill:none;stroke:#000000;stroke-width:1.0002;stroke-linecap:butt;stroke-linejoin:round;stroke-miterlimit:10;stroke-dasharray:none;stroke-opacity:1"
       id="path284" /><path
       d="m 316.538,180.51 -7.018,64.845"
       style="fill:none;stroke:#000000;stroke-width:1.0002;stroke-linecap:butt;stroke-linejoin:round;stroke-miterlimit:10;stroke-dasharray:none;stroke-opacity:1"
       id="path286" /><path
       d="m 265.713,132.677 1.423,1.293 1.416,1.29 1.409,1.285 1.402,1.282 1.394,1.277 1.388,1.274 1.38,1.27 1.374,1.266 1.368,1.263 1.361,1.258 1.354,1.255 1.347,1.252 1.341,1.248 1.336,1.244 1.328,1.241 1.323,1.238 1.317,1.234 1.311,1.231 1.304,1.227 1.299,1.224 1.294,1.221 1.287,1.218 1.281,1.214 1.277,1.212 1.27,1.208 1.266,1.205 1.259,1.203 1.255,1.199 1.249,1.196 1.244,1.193 1.239,1.191 1.234,1.187 1.228,1.185 1.223,1.182 1.219,1.178 1.214,1.176 1.209,1.174 1.203,1.171 1.199,1.168"
       style="fill:none;stroke:#000000;stroke-width:1.0002;stroke-linecap:butt;stroke-linejoin:round;stroke-miterlimit:10;stroke-dasharray:none;stroke-opacity:1"
       id="path288" /><path
       d="m 84.2527,74.5332 1.8649,1.1992 1.8539,1.1965 1.8418,1.1926 1.8312,1.1898 1.82,1.1867 1.8093,1.1848 1.7985,1.1805 1.7879,1.1781 1.7778,1.1746 1.767,1.1719 1.757,1.1687 1.747,1.1657 1.737,1.1636 1.728,1.1598 1.718,1.1574 1.708,1.1535 1.699,1.1516 1.69,1.1488 1.681,1.1457 1.672,1.143 1.663,1.1398 1.655,1.1375 1.645,1.134 1.638,1.132 1.628,1.129 1.621,1.127 1.613,1.123 1.604,1.121 1.596,1.118 1.588,1.116 1.581,1.113 1.573,1.11 1.565,1.108 1.558,1.105 1.55,1.102 1.543,1.1 1.536,1.098 1.529,1.095 1.521,1.091"
       style="fill:none;stroke:#000000;stroke-width:1.0002;stroke-linecap:butt;stroke-linejoin:round;stroke-miterlimit:10;stroke-dasharray:none;stroke-opacity:1"
       id="path290" /><path
       d="m 82.6063,72.4395 4.9761,0.6273 4.9746,0.0105 4.9743,0.0102 4.9727,0.0109 4.973,0.0102 4.972,0.0109 4.972,0.0102 4.971,0.0105 4.97,0.0106 4.97,0.0101 4.97,0.0106 4.968,0.0101 4.969,0.0106 4.967,0.0105 4.967,0.0102 4.967,0.0101 4.967,0.011 4.965,0.0101 4.965,0.0102 4.965,0.0109 4.964,0.0102 4.963,0.0101 4.964,0.1586 4.906,4.011 4.808,3.9629 4.713,3.9175 4.623,3.8723 4.538,3.8285 4.455,3.7871 4.378,3.7466 4.304,3.707 4.232,3.669 4.165,3.633 4.098,3.598 4.037,3.563 3.975,3.531 3.918,3.499 3.862,3.468 3.808,3.439"
       style="fill:none;stroke:#000000;stroke-width:1.0002;stroke-linecap:butt;stroke-linejoin:round;stroke-miterlimit:10;stroke-dasharray:none;stroke-opacity:1"
       id="path292" /><path
       d="m 149.749,119.145 5.124,3.7 5.045,3.671 4.97,3.644 4.898,3.617 4.828,3.59 4.761,3.563 4.695,3.538 4.633,3.513 4.572,3.489 4.513,3.463 4.457,3.44 4.401,3.416 4.348,3.392 4.296,3.37 4.246,3.346 4.198,3.323 4.15,3.301 4.104,3.278 4.06,3.256 4.016,3.233 3.975,3.211 3.932,3.189 3.894,3.166 3.855,3.143 3.817,3.121 3.78,3.096 3.745,3.074 3.709,3.05 3.676,3.026 3.643,3.002 3.611,2.978 3.579,2.954 3.549,2.93 3.519,2.906 3.49,2.883 3.461,2.862 3.434,2.842 3.407,2.825 3.38,2.809"
       style="fill:none;stroke:#000000;stroke-width:1.0002;stroke-linecap:butt;stroke-linejoin:round;stroke-miterlimit:10;stroke-dasharray:none;stroke-opacity:1"
       id="path294" /><path
       d="m 82.6063,72.4395 4.9761,0.6273 4.9746,0.0105 4.9743,0.0102 4.9727,0.0109 4.973,0.0102 4.972,0.0109 4.972,0.0102 4.971,0.0105 4.97,0.0106 4.97,0.0101 4.97,0.0106 4.968,0.0101 4.969,0.0106 4.967,0.0105 4.967,0.0102 4.967,0.0101 4.967,0.011 4.965,0.0101 4.965,0.0102 4.965,0.0109 4.964,0.0102 4.963,0.0101 4.964,0.1586 4.906,4.011 4.808,3.9629 4.713,3.9175 4.623,3.8723 4.538,3.8285 4.455,3.7871 4.378,3.7466 4.304,3.707 4.232,3.669 4.165,3.633 4.098,3.598 4.037,3.563 3.975,3.531 3.918,3.499 3.862,3.468 3.808,3.439"
       style="fill:none;stroke:#000000;stroke-width:1.0002;stroke-linecap:butt;stroke-linejoin:round;stroke-miterlimit:10;stroke-dasharray:none;stroke-opacity:1"
       id="path296" /><path
       d="m 149.749,125.313 5.124,3.705 5.045,3.702 4.97,3.7 4.898,3.697 4.828,3.694 4.761,3.691 4.695,3.688 4.633,3.685 4.572,3.681 4.513,3.678 4.457,3.675 4.401,3.671 4.348,3.667 4.296,3.665 4.246,3.659 4.198,3.657 4.15,3.652 4.104,3.649 4.06,3.644 4.016,3.64 3.975,3.637 3.932,3.632 3.894,3.628 3.855,3.624 3.817,3.619 3.78,3.615 3.745,3.611 3.709,3.607 3.676,3.602 3.643,3.597 3.611,3.593 3.579,3.588 3.549,3.585 3.519,3.579 3.49,3.575 3.461,3.571 3.434,3.566 3.407,3.561 3.38,3.557"
       style="fill:none;stroke:#ff0000;stroke-width:1.0002;stroke-linecap:butt;stroke-linejoin:round;stroke-miterlimit:10;stroke-dasharray:none;stroke-opacity:1"
       id="path298" /><path
       d="m 82.6063,63.6398 4.9761,0.1586 4.9746,0.1579 4.9743,0.1582 4.9727,0.1578 4.973,0.1578 4.972,0.1586 4.972,0.1578 4.971,0.1582 4.97,0.1578 4.97,0.1586 4.97,0.1578 4.968,0.1582 4.969,0.1578 4.967,0.1586 4.967,0.1578 4.967,0.1582 4.967,0.1578 4.965,0.1586 4.965,0.1582 4.965,0.1579 4.964,0.1585 4.963,0.1579 4.964,0.1582 4.906,0.1578 4.808,0.1586 4.713,0.1582 4.623,0.1578 4.538,0.1586 4.455,0.1578 4.378,0.1582 4.304,0.1586 4.232,0.1578 4.165,0.1582 4.098,0.1586 4.037,0.1574 3.975,0.1586 3.918,0.1578 3.862,0.1582 3.808,0.1586"
       style="fill:none;stroke:#0000ff;stroke-width:1.0002;stroke-linecap:butt;stroke-linejoin:round;stroke-miterlimit:10;stroke-dasharray:none;stroke-opacity:1"
       id="path300" /><path
       d="m 83.6066,72.4398 c 0,0.552 -0.448,1 -1.0003,1 -0.552,0 -1,-0.448 -1,-1 0,-0.5523 0.448,-1.0003 1,-1.0003 0.5523,0 1.0003,0.448 1.0003,1.0003"
       style="fill:#000000;fill-opacity:1;fill-rule:nonzero;stroke:none;stroke-width:0.1"
       id="path302" /><path
       d="m 82.6063,72.9395 c 0.2761,0 0.5,-0.2239 0.5,-0.4997 v 0 c 0,-0.2761 -0.2239,-0.5 -0.5,-0.5 -0.2758,0 -0.4997,0.2239 -0.4997,0.5 0,0.2758 0.2239,0.4997 0.4997,0.4997 z m 0,1.0003 c -0.8286,0 -1.5,-0.6714 -1.5,-1.5 0,-0.8289 0.6714,-1.5 1.5,-1.5 0.8289,0 1.5,0.6711 1.5,1.5 v 0 c 0,0.8286 -0.6711,1.5 -1.5,1.5"
       style="fill:#000000;fill-opacity:1;fill-rule:nonzero;stroke:none;stroke-width:0.1"
       id="path304" /><path
       d="m 85.2527,74.5332 c 0,0.552 -0.448,1.0004 -1.0004,1.0004 -0.5519,0 -1,-0.4484 -1,-1.0004 0,-0.5519 0.4481,-1 1,-1 0.5524,0 1.0004,0.4481 1.0004,1"
       style="fill:#000000;fill-opacity:1;fill-rule:nonzero;stroke:none;stroke-width:0.1"
       id="path306" /><path
       d="m 84.2523,75.0332 c 0.2762,0 0.5,-0.2238 0.5,-0.5 v 0 c 0,-0.2758 -0.2238,-0.4996 -0.5,-0.4996 -0.2757,0 -0.4996,0.2238 -0.4996,0.4996 0,0.2762 0.2239,0.5 0.4996,0.5 z m 0,1 c -0.8285,0 -1.5,-0.6715 -1.5,-1.5 0,-0.8285 0.6715,-1.5 1.5,-1.5 0.829,0 1.5,0.6715 1.5,1.5 v 0 c 0,0.8285 -0.671,1.5 -1.5,1.5"
       style="fill:#000000;fill-opacity:1;fill-rule:nonzero;stroke:none;stroke-width:0.1"
       id="path308" /><path
       d="m 150.75,119.145 c 0,0.552 -0.448,1.001 -1,1.001 -0.553,0 -1.001,-0.449 -1.001,-1.001 0,-0.552 0.448,-1 1.001,-1 0.552,0 1,0.448 1,1"
       style="fill:#000000;fill-opacity:1;fill-rule:nonzero;stroke:none;stroke-width:0.1"
       id="path310" /><path
       d="m 149.75,119.645 c 0.275,0 0.499,-0.224 0.499,-0.5 v 0 c 0,-0.275 -0.224,-0.499 -0.499,-0.499 -0.277,0 -0.5,0.224 -0.5,0.499 0,0.276 0.223,0.5 0.5,0.5 z m 0,1 c -0.829,0 -1.5,-0.671 -1.5,-1.5 0,-0.828 0.671,-1.5 1.5,-1.5 0.828,0 1.5,0.672 1.5,1.5 v 0 c 0,0.829 -0.672,1.5 -1.5,1.5"
       style="fill:#000000;fill-opacity:1;fill-rule:nonzero;stroke:none;stroke-width:0.1"
       id="path312" /><path
       d="m 310.52,245.355 c 0,0.552 -0.448,1.001 -1,1.001 -0.552,0 -1,-0.449 -1,-1.001 0,-0.551 0.448,-1 1,-1 0.552,0 1,0.449 1,1"
       style="fill:#000000;fill-opacity:1;fill-rule:nonzero;stroke:none;stroke-width:0.1"
       id="path314" /><path
       d="m 309.52,245.855 c 0.276,0 0.5,-0.223 0.5,-0.5 v 0 c 0,-0.276 -0.224,-0.499 -0.5,-0.499 -0.276,0 -0.5,0.223 -0.5,0.499 0,0.277 0.224,0.5 0.5,0.5 z m 0,1 c -0.829,0 -1.5,-0.671 -1.5,-1.5 0,-0.828 0.671,-1.5 1.5,-1.5 0.829,0 1.5,0.672 1.5,1.5 v 0 c 0,0.829 -0.671,1.5 -1.5,1.5"
       style="fill:#000000;fill-opacity:1;fill-rule:nonzero;stroke:none;stroke-width:0.1"
       id="path316" /><path
       d="m 317.539,180.51 c 0,0.552 -0.448,1 -1,1 -0.553,0 -1.001,-0.448 -1.001,-1 0,-0.552 0.448,-1 1.001,-1 0.552,0 1,0.448 1,1"
       style="fill:#000000;fill-opacity:1;fill-rule:nonzero;stroke:none;stroke-width:0.1"
       id="path318" /><path
       d="m 316.539,181.01 c 0.275,0 0.499,-0.224 0.499,-0.5 v 0 c 0,-0.276 -0.224,-0.5 -0.499,-0.5 -0.276,0 -0.5,0.224 -0.5,0.5 0,0.276 0.224,0.5 0.5,0.5 z m 0,1 c -0.829,0 -1.5,-0.671 -1.5,-1.5 0,-0.829 0.671,-1.5 1.5,-1.5 0.828,0 1.5,0.671 1.5,1.5 v 0 c 0,0.829 -0.672,1.5 -1.5,1.5"
       style="fill:#000000;fill-opacity:1;fill-rule:nonzero;stroke:none;stroke-width:0.1"
       id="path320" /><path
       d="m 266.713,132.677 c 0,0.552 -0.448,1 -1,1 -0.552,0 -1,-0.448 -1,-1 0,-0.552 0.448,-1.001 1,-1.001 0.552,0 1,0.449 1,1.001"
       style="fill:#000000;fill-opacity:1;fill-rule:nonzero;stroke:none;stroke-width:0.1"
       id="path322" /><path
       d="m 265.713,133.176 c 0.276,0 0.5,-0.224 0.5,-0.499 v 0 c 0,-0.277 -0.224,-0.5 -0.5,-0.5 -0.276,0 -0.5,0.223 -0.5,0.5 0,0.275 0.224,0.499 0.5,0.499 z m 0,1.001 c -0.829,0 -1.5,-0.672 -1.5,-1.5 0,-0.829 0.671,-1.5 1.5,-1.5 0.828,0 1.5,0.671 1.5,1.5 v 0 c 0,0.828 -0.672,1.5 -1.5,1.5"
       style="fill:#000000;fill-opacity:1;fill-rule:nonzero;stroke:none;stroke-width:0.1"
       id="path324" /><path
       d="m 310.52,267.16 c 0,0.552 -0.448,1 -1,1 -0.552,0 -1,-0.448 -1,-1 0,-0.552 0.448,-1 1,-1 0.552,0 1,0.448 1,1"
       style="fill:#ff0000;fill-opacity:1;fill-rule:nonzero;stroke:none;stroke-width:0.1"
       id="path326" /><path
       d="m 309.52,267.66 c 0.276,0 0.5,-0.224 0.5,-0.5 v 0 c 0,-0.276 -0.224,-0.5 -0.5,-0.5 -0.276,0 -0.5,0.224 -0.5,0.5 0,0.276 0.224,0.5 0.5,0.5 z m 0,1 c -0.829,0 -1.5,-0.671 -1.5,-1.5 0,-0.829 0.671,-1.5 1.5,-1.5 0.829,0 1.5,0.671 1.5,1.5 v 0 c 0,0.829 -0.671,1.5 -1.5,1.5"
       style="fill:#ff0000;fill-opacity:1;fill-rule:nonzero;stroke:none;stroke-width:0.1"
       id="path328" /><path
       d="m 150.75,125.313 c 0,0.552 -0.448,1 -1,1 -0.553,0 -1.001,-0.448 -1.001,-1 0,-0.552 0.448,-1 1.001,-1 0.552,0 1,0.448 1,1"
       style="fill:#ff0000;fill-opacity:1;fill-rule:nonzero;stroke:none;stroke-width:0.1"
       id="path330" /><path
       d="m 149.75,125.813 c 0.275,0 0.499,-0.224 0.499,-0.5 v 0 c 0,-0.276 -0.224,-0.5 -0.499,-0.5 -0.277,0 -0.5,0.224 -0.5,0.5 0,0.276 0.223,0.5 0.5,0.5 z m 0,1 c -0.829,0 -1.5,-0.672 -1.5,-1.5 0,-0.829 0.671,-1.5 1.5,-1.5 0.828,0 1.5,0.671 1.5,1.5 v 0 c 0,0.828 -0.672,1.5 -1.5,1.5"
       style="fill:#ff0000;fill-opacity:1;fill-rule:nonzero;stroke:none;stroke-width:0.1"
       id="path332" /><path
       d="m 83.6066,63.6398 c 0,0.5524 -0.448,1.0004 -1.0003,1.0004 -0.552,0 -1,-0.448 -1,-1.0004 0,-0.5519 0.448,-1 1,-1 0.5523,0 1.0003,0.4481 1.0003,1"
       style="fill:#0000ff;fill-opacity:1;fill-rule:nonzero;stroke:none;stroke-width:0.1"
       id="path334" /><path
       d="m 82.6063,64.1398 c 0.2761,0 0.5,-0.2238 0.5,-0.5 v 0 c 0,-0.2757 -0.2239,-0.4996 -0.5,-0.4996 -0.2758,0 -0.4997,0.2239 -0.4997,0.4996 0,0.2762 0.2239,0.5 0.4997,0.5 z m 0,1 c -0.8286,0 -1.5,-0.671 -1.5,-1.5 0,-0.8285 0.6714,-1.5 1.5,-1.5 0.8289,0 1.5,0.6715 1.5,1.5 v 0 c 0,0.829 -0.6711,1.5 -1.5,1.5"
       style="fill:#0000ff;fill-opacity:1;fill-rule:nonzero;stroke:none;stroke-width:0.1"
       id="path336" /><path
       d="m 83.6066,63.6402 c 0,0.552 -0.448,1.0004 -1.0003,1.0004 -0.552,0 -1,-0.4484 -1,-1.0004 0,-0.5519 0.448,-1.0004 1,-1.0004 0.5523,0 1.0003,0.4485 1.0003,1.0004"
       style="fill:#0000ff;fill-opacity:1;fill-rule:nonzero;stroke:none;stroke-width:0.1"
       id="path338" /><path
       d="m 82.6063,64.1398 c 0.2761,0 0.5,-0.2234 0.5,-0.4996 v 0 c 0,-0.2761 -0.2239,-0.4996 -0.5,-0.4996 -0.2758,0 -0.4997,0.2235 -0.4997,0.4996 0,0.2762 0.2239,0.4996 0.4997,0.4996 z m 0,1.0004 c -0.8286,0 -1.5,-0.6714 -1.5,-1.5 0,-0.8285 0.6714,-1.5 1.5,-1.5 0.8289,0 1.5,0.6715 1.5,1.5 v 0 c 0,0.8286 -0.6711,1.5 -1.5,1.5"
       style="fill:#0000ff;fill-opacity:1;fill-rule:nonzero;stroke:none;stroke-width:0.1"
       id="path340" /><path
       d="m 266.713,69.8074 c 0,0.552 -0.448,1 -1,1 -0.552,0 -1,-0.448 -1,-1 0,-0.5519 0.448,-1.0004 1,-1.0004 0.552,0 1,0.4485 1,1.0004"
       style="fill:#0000ff;fill-opacity:1;fill-rule:nonzero;stroke:none;stroke-width:0.1"
       id="path342" /><path
       d="m 265.713,70.307 c 0.276,0 0.5,-0.2238 0.5,-0.4996 v 0 c 0,-0.2761 -0.224,-0.5 -0.5,-0.5 -0.276,0 -0.5,0.2239 -0.5,0.5 0,0.2758 0.224,0.4996 0.5,0.4996 z m 0,1.0004 c -0.829,0 -1.5,-0.6715 -1.5,-1.5 0,-0.8289 0.671,-1.5 1.5,-1.5 0.828,0 1.5,0.6711 1.5,1.5 v 0 c 0,0.8285 -0.672,1.5 -1.5,1.5"
       style="fill:#0000ff;fill-opacity:1;fill-rule:nonzero;stroke:none;stroke-width:0.1"
       id="path344" /><path
       d="m 82.6063,63.6398 v 0"
       style="fill:none;stroke:#0000ff;stroke-width:1.0002;stroke-linecap:butt;stroke-linejoin:round;stroke-miterlimit:10;stroke-dasharray:none;stroke-opacity:1"
       id="path346" /><path
       d="M 53.2199,38.199995 V 282.1"
       style="fill:none;stroke:#000000;stroke-width:0.75;stroke-linecap:square;stroke-linejoin:round;stroke-miterlimit:10;stroke-dasharray:none;stroke-opacity:1"
       id="path170"
       sodipodi:nodetypes="cc" /><path
       d="M 345.78,38.2 V 282.1"
       style="fill:none;stroke:#000000;stroke-width:0.75;stroke-linecap:square;stroke-linejoin:round;stroke-miterlimit:10;stroke-dasharray:none;stroke-opacity:1"
       id="path172"
       sodipodi:nodetypes="cc" /><path
       d="M 53.219903,38.2 H 345.78"
       style="fill:none;stroke:#000000;stroke-width:0.75;stroke-linecap:square;stroke-linejoin:round;stroke-miterlimit:10;stroke-dasharray:none;stroke-opacity:1"
       id="path22-9" /><path
       d="M 53.2199,282.1 H 345.78"
       style="fill:none;stroke:#000000;stroke-width:0.75;stroke-linecap:square;stroke-linejoin:round;stroke-miterlimit:10;stroke-dasharray:none;stroke-opacity:1"
       id="path22" /><text
       xml:space="preserve"
       style="font-style:normal;font-weight:normal;font-size:16px;line-height:1.25;font-family:sans-serif;fill:#000000;fill-opacity:1;stroke:none;stroke-width:0.75"
       x="119.82968"
       y="38.823776"
       id="text3697"
       transform="matrix(0,1,1,0,0,0)"><tspan
         sodipodi:role="line"
         id="tspan3695"
         x="119.82968"
         y="38.823776"
         style="font-style:normal;font-variant:normal;font-weight:normal;font-stretch:normal;font-size:16px;font-family:'Times New Roman';-inkscape-font-specification:'Times New Roman, ';stroke-width:0.75">Temperature</tspan></text><text
       xml:space="preserve"
       style="font-style:normal;font-weight:normal;font-size:16px;line-height:1.25;font-family:sans-serif;fill:#000000;fill-opacity:1;stroke:none;stroke-width:0.75"
       x="173.60933"
       y="-13.505945"
       id="text3701"
       transform="scale(1,-1)"><tspan
         sodipodi:role="line"
         id="tspan3699"
         x="173.60933"
         y="-13.505945"
         style="font-style:italic;font-variant:normal;font-weight:normal;font-stretch:normal;font-size:16px;font-family:times;-inkscape-font-specification:'times Italic';stroke-width:0.75"><tspan
           style="font-style:normal;font-variant:normal;font-weight:normal;font-stretch:normal;font-family:times;-inkscape-font-specification:times"
           id="tspan3705">Entropy</tspan></tspan></text><text
       xml:space="preserve"
       style="font-style:normal;font-weight:normal;font-size:15px;line-height:1.25;font-family:sans-serif;fill:#000000;fill-opacity:1;stroke:none;stroke-width:0.75"
       x="315.41745"
       y="-263.74017"
       id="text3643-9-0-7"
       transform="scale(1,-1)"><tspan
         sodipodi:role="line"
         id="tspan3641-90-8-3"
         x="315.41745"
         y="-263.74017"
         style="font-style:normal;font-variant:normal;font-weight:normal;font-stretch:normal;font-size:15px;font-family:'Times New Roman';-inkscape-font-specification:'Times New Roman, ';stroke-width:0.75">1</tspan></text><text
       xml:space="preserve"
       style="font-style:normal;font-weight:normal;font-size:15px;line-height:1.25;font-family:sans-serif;fill:#000000;fill-opacity:1;stroke:none;stroke-width:0.75"
       x="139.99266"
       y="-137.12308"
       id="text3643-9-0-4"
       transform="scale(1,-1)"><tspan
         sodipodi:role="line"
         id="tspan3641-90-8-4"
         x="139.99266"
         y="-137.12308"
         style="font-style:normal;font-variant:normal;font-weight:normal;font-stretch:normal;font-size:15px;font-family:'Times New Roman';-inkscape-font-specification:'Times New Roman, ';stroke-width:0.75">2-3</tspan></text><text
       xml:space="preserve"
       style="font-style:normal;font-weight:normal;font-size:15px;line-height:1.25;font-family:sans-serif;fill:#000000;fill-opacity:1;stroke:none;stroke-width:0.75"
       x="68.973015"
       y="-74.103737"
       id="text3643-9-0-6"
       transform="scale(1,-1)"><tspan
         sodipodi:role="line"
         id="tspan3641-90-8-7"
         x="68.973015"
         y="-74.103737"
         style="font-style:normal;font-variant:normal;font-weight:normal;font-stretch:normal;font-size:15px;font-family:'Times New Roman';-inkscape-font-specification:'Times New Roman, ';stroke-width:0.75">4</tspan></text><text
       xml:space="preserve"
       style="font-style:normal;font-weight:normal;font-size:15px;line-height:1.25;font-family:sans-serif;fill:#000000;fill-opacity:1;stroke:none;stroke-width:0.75"
       x="82.4002"
       y="-83.704231"
       id="text3643-9-0-8"
       transform="scale(1,-1)"><tspan
         sodipodi:role="line"
         id="tspan3641-90-8-2"
         x="82.4002"
         y="-83.704231"
         style="font-style:normal;font-variant:normal;font-weight:normal;font-stretch:normal;font-size:15px;font-family:'Times New Roman';-inkscape-font-specification:'Times New Roman, ';stroke-width:0.75">5</tspan></text><text
       xml:space="preserve"
       style="font-style:normal;font-weight:normal;font-size:15px;line-height:1.25;font-family:sans-serif;fill:#000000;fill-opacity:1;stroke:none;stroke-width:0.75"
       x="130.6848"
       y="-118.80094"
       id="text3643-9-0-3"
       transform="scale(1,-1)"><tspan
         sodipodi:role="line"
         id="tspan3641-90-8-9"
         x="130.6848"
         y="-118.80094"
         style="font-style:normal;font-variant:normal;font-weight:normal;font-stretch:normal;font-size:15px;font-family:'Times New Roman';-inkscape-font-specification:'Times New Roman, ';stroke-width:0.75">6</tspan></text><text
       xml:space="preserve"
       style="font-style:normal;font-weight:normal;font-size:15px;line-height:1.25;font-family:sans-serif;fill:#000000;fill-opacity:1;stroke:none;stroke-width:0.75"
       x="316.11664"
       y="-242.45621"
       id="text3643-9-0-5"
       transform="scale(1,-1)"><tspan
         sodipodi:role="line"
         id="tspan3641-90-8-37"
         x="316.11664"
         y="-242.45621"
         style="font-style:normal;font-variant:normal;font-weight:normal;font-stretch:normal;font-size:15px;font-family:'Times New Roman';-inkscape-font-specification:'Times New Roman, ';stroke-width:0.75">7</tspan></text><text
       xml:space="preserve"
       style="font-style:normal;font-weight:normal;font-size:15px;line-height:1.25;font-family:sans-serif;fill:#000000;fill-opacity:1;stroke:none;stroke-width:0.75"
       x="324.02216"
       y="-177.19896"
       id="text3643-9-0-86"
       transform="scale(1,-1)"><tspan
         sodipodi:role="line"
         id="tspan3641-90-8-46"
         x="324.02216"
         y="-177.19896"
         style="font-style:normal;font-variant:normal;font-weight:normal;font-stretch:normal;font-size:15px;font-family:'Times New Roman';-inkscape-font-specification:'Times New Roman, ';stroke-width:0.75">8</tspan></text><text
       xml:space="preserve"
       style="font-style:normal;font-weight:normal;font-size:15px;line-height:1.25;font-family:sans-serif;fill:#000000;fill-opacity:1;stroke:none;stroke-width:0.75"
       x="272.72418"
       y="-122.47359"
       id="text3643-9-0-36"
       transform="scale(1,-1)"><tspan
         sodipodi:role="line"
         id="tspan3641-90-8-374"
         x="272.72418"
         y="-122.47359"
         style="font-style:normal;font-variant:normal;font-weight:normal;font-stretch:normal;font-size:15px;font-family:'Times New Roman';-inkscape-font-specification:'Times New Roman, ';stroke-width:0.75" /></text><text
       xml:space="preserve"
       style="font-style:normal;font-weight:normal;font-size:15px;line-height:1.25;font-family:sans-serif;fill:#000000;fill-opacity:1;stroke:none;stroke-width:0.75"
       x="65.423683"
       y="-47.677711"
       id="text3643-9-0-65"
       transform="scale(1,-1)"><tspan
         sodipodi:role="line"
         id="tspan3641-90-8-6"
         x="65.423683"
         y="-47.677711"
         style="font-style:normal;font-variant:normal;font-weight:normal;font-stretch:normal;font-size:15px;font-family:'Times New Roman';-inkscape-font-specification:'Times New Roman, ';stroke-width:0.75">10-11</tspan></text><text
       xml:space="preserve"
       style="font-style:normal;font-weight:normal;font-size:15px;line-height:1.25;font-family:sans-serif;fill:#000000;fill-opacity:1;stroke:none;stroke-width:0.75"
       x="259.05658"
       y="-52.560242"
       id="text3643-9-0-89"
       transform="scale(1,-1)"><tspan
         sodipodi:role="line"
         id="tspan3641-90-8-5"
         x="259.05658"
         y="-52.560242"
         style="font-style:normal;font-variant:normal;font-weight:normal;font-stretch:normal;font-size:15px;font-family:'Times New Roman';-inkscape-font-specification:'Times New Roman, ';stroke-width:0.75">12</tspan></text><text
       xml:space="preserve"
       style="font-style:normal;font-weight:normal;font-size:15px;line-height:1.25;font-family:sans-serif;fill:#000000;fill-opacity:1;stroke:none;stroke-width:0.75"
       x="274.91589"
       y="-121.14512"
       id="text3643-9-0-86-6"
       transform="scale(1,-1)"><tspan
         sodipodi:role="line"
         id="tspan3641-90-8-46-3"
         x="274.91589"
         y="-121.14512"
         style="font-style:normal;font-variant:normal;font-weight:normal;font-stretch:normal;font-size:15px;font-family:'Times New Roman';-inkscape-font-specification:'Times New Roman, ';stroke-width:0.75">9</tspan></text></g></svg>
